<?xml version="1.0" encoding="UTF-8" standalone="no"?>
<svg
   viewBox="0 0 4511.9999 2255.6529"
   width="4512"
   height="2255.6528"
   version="1.1"
   id="svg1297"
   sodipodi:docname="Panel.svg"
   inkscape:version="1.1 (c68e22c387, 2021-05-23)"
   xmlns:inkscape="http://www.inkscape.org/namespaces/inkscape"
   xmlns:sodipodi="http://sodipodi.sourceforge.net/DTD/sodipodi-0.dtd"
   xmlns="http://www.w3.org/2000/svg"
   xmlns:svg="http://www.w3.org/2000/svg">
  <sodipodi:namedview
     id="namedview1299"
     pagecolor="#ffffff"
     bordercolor="#cccccc"
     borderopacity="1"
     inkscape:pageshadow="0"
     inkscape:pageopacity="1"
     inkscape:pagecheckerboard="0"
     showgrid="false"
     inkscape:zoom="0.092441963"
     inkscape:cx="-356.98074"
     inkscape:cy="1422.5141"
     inkscape:window-width="1440"
     inkscape:window-height="837"
     inkscape:window-x="-8"
     inkscape:window-y="-8"
     inkscape:window-maximized="1"
     inkscape:current-layer="g1295"
     fit-margin-top="0"
     fit-margin-left="0"
     fit-margin-right="0"
     fit-margin-bottom="0" />
  <desc
     id="desc1268">Panel.dxf - scale = 1.0, origin = (0.0, 0.0), method = manual</desc>
  <defs
     id="defs1283">
    <marker
       id="DistanceX"
       orient="auto"
       refX="0"
       refY="0"
       style="overflow:visible">
      <path
         d="M 3,-3 -3,3 M 0,-5 V 5"
         style="stroke:#000000;stroke-width:0.5"
         id="path1270" />
    </marker>
    <pattern
       id="Hatch"
       patternUnits="userSpaceOnUse"
       width="8"
       height="8"
       x="0"
       y="0">
      <path
         d="M8 4 l-4,4"
         stroke="#000000"
         stroke-width="0.25"
         linecap="square"
         id="path1273" />
      <path
         d="M6 2 l-4,4"
         stroke="#000000"
         stroke-width="0.25"
         linecap="square"
         id="path1275" />
      <path
         d="M4 0 l-4,4"
         stroke="#000000"
         stroke-width="0.25"
         linecap="square"
         id="path1277" />
    </pattern>
    <symbol
       id="*Model_Space" />
    <symbol
       id="*Paper_Space" />
    <symbol
       id="*Paper_Space0" />
  </defs>
  <g
     inkscape:groupmode="layer"
     inkscape:label="0"
     id="g1293"
     transform="translate(0,1133.1332)">
    <path
       d="m 316.35097,1091.2954 4.76512,-108.19452 10.79556,-107.76002 16.79235,-106.98964 22.73679,-105.8858 28.61038,-104.45196 34.39479,-102.69257 40.07201,-100.61311 45.62434,-98.22009 40.46022,-76.75152 180.3865,104.1462 L 772.2133,229.80036 318.04596,-32.413276 260.87277,69.427403 209.04666,174.09044 162.70652,281.29533 121.97655,390.75476 86.965901,502.17536 57.768409,615.25854 34.462326,729.7012 17.110112,845.19665 5.758273,961.43533 0.437232,1078.1057 0,1122.5197 h 316.09966 z"
       style="fill:#ff0000"
       id="path1285" />
    <path
       d="m 1155.1491,-846.65862 -100.4338,59.61002 -97.21427,64.7278 -93.73418,69.67208 -90.00291,74.42966 -86.03041,78.98775 -81.82736,83.33416 -77.40499,87.45721 -72.77518,91.34588 -67.95033,94.98974 -62.94336,98.379017 -6.78635,11.312027 273.78083,158.067436 58.224,-91.316655 63.22924,-87.925132 68.03741,-84.259573 72.63354,-80.3314 77.0033,-76.15286 81.13302,-71.73697 85.01,-67.09751 88.6218,-62.24893 73.4154,-46.23865 104.1462,180.3865 54.082,-31.22426 z"
       style="fill:#ff7f00"
       id="path1287" />
    <path
       d="m 2287.2243,-817.12935 108.1945,4.76513 107.76,10.79556 106.9897,16.79235 105.8858,22.73679 104.4519,28.61038 102.6926,34.39479 100.6131,40.07201 98.2201,45.62434 76.7515,40.46021 -104.1462,180.38651 54.082,31.22426 104.1462,-180.3865 91.3167,58.22399 87.9251,63.22924 84.2596,68.03742 80.3314,72.63354 76.1528,77.00329 71.737,81.13305 67.0975,85.009939 62.249,88.621876 46.2386,73.415335 -180.3865,104.1462 31.2243,54.08201 180.3865,-104.1462 49.9705,96.08179 44.5308,98.72069 38.9522,101.05192 33.2523,103.06819 27.4486,104.76324 21.5596,106.13177 15.6031,107.16952 9.5983,107.87321 3.3361,86.6989 h -208.2924 l 0.2816,31.2243 H 4512 l -3.0231,-116.7526 -9.0613,-116.43961 -15.075,-115.81467 L 4463.792,658.6335 4436.8265,544.99744 4404.0161,432.90917 4365.449,322.6691 4321.2284,214.57269 4271.4728,108.90963 4216.3156,5.963123 l -60.4109,-99.954065 -65.5028,-96.693738 -70.4191,-93.17426 -75.1468,-89.40507 -79.6729,-85.39627 -83.9856,-81.1586 -88.0731,-76.70342 -91.9247,-72.04268 -95.5299,-67.18884 -98.879,-62.15495 -101.9632,-56.95447 -104.774,-51.60135 -107.3041,-46.10994 -109.5466,-40.49497 -111.4955,-34.7714 -113.1456,-28.9547 -114.4924,-23.0604 -115.5324,-17.1043 -116.2628,-11.1023 -116.6816,-5.0706 -116.7876,0.9747 -116.5807,7.0173 -116.0612,13.0413 -115.2309,19.0302 -114.0916,24.9681 -112.6465,30.8391 -110.8997,36.6275 -108.8554,42.3177 -106.5196,47.89447 -103.8982,53.34289 -18.8521,10.42132 158.0674,273.78083 96.0818,-49.97054 98.7207,-44.53078 101.0519,-38.95222 103.0682,-33.25226 104.7632,-27.44867 106.1318,-21.55952 107.1695,-15.60318 107.8733,-9.59821 86.6988,-3.33618 v 208.2924 h 62.4486 z"
       style="fill:#009826"
       id="path1289" />
    <path
       d="M 524.64336,1091.2954 H 316.35097 l 4.76512,-108.19452 10.79556,-107.76002 16.79235,-106.98964 22.73679,-105.8858 28.61038,-104.45196 34.39479,-102.69257 40.07201,-100.61311 45.62434,-98.22009 40.46022,-76.75152 180.3865,104.1462 L 772.2133,229.80036 318.04596,-32.413276 260.87277,69.427403 209.04666,174.09044 162.70652,281.29533 121.97655,390.75476 86.965901,502.17536 57.768409,615.25854 34.462326,729.7012 17.110112,845.19665 5.758273,961.43533 0.437232,1078.1057 0,1122.5197 h 316.09966 208.26216 z"
       style="fill:#ff0000"
       id="path1291" />
  </g>
  <g
     inkscape:groupmode="layer"
     inkscape:label="Системный слой"
     id="g1295"
     transform="translate(0,1133.1332)" />
</svg>
