<?xml version="1.0" encoding="UTF-8" standalone="no"?>
<!-- Created with Inkscape (http://www.inkscape.org/) -->

<svg
   width="30.444139mm"
   height="113.25944mm"
   viewBox="0 0 30.44414 113.25942"
   version="1.1"
   id="svg31307"
   inkscape:version="1.1 (c68e22c387, 2021-05-23)"
   sodipodi:docname="стрелка.svg"
   xmlns:inkscape="http://www.inkscape.org/namespaces/inkscape"
   xmlns:sodipodi="http://sodipodi.sourceforge.net/DTD/sodipodi-0.dtd"
   xmlns="http://www.w3.org/2000/svg"
   xmlns:svg="http://www.w3.org/2000/svg">
  <sodipodi:namedview
     id="namedview31309"
     pagecolor="#ffffff"
     bordercolor="#cccccc"
     borderopacity="1"
     inkscape:pageshadow="0"
     inkscape:pageopacity="1"
     inkscape:pagecheckerboard="0"
     inkscape:document-units="mm"
     showgrid="false"
     showguides="true"
     inkscape:guide-bbox="true"
     inkscape:zoom="0.76851238"
     inkscape:cx="151.59157"
     inkscape:cy="341.56899"
     inkscape:window-width="1440"
     inkscape:window-height="837"
     inkscape:window-x="-8"
     inkscape:window-y="-8"
     inkscape:window-maximized="1"
     inkscape:current-layer="layer1"
     fit-margin-top="0"
     fit-margin-left="0"
     fit-margin-right="0"
     fit-margin-bottom="0"
     showborder="true"
     units="mm"
     lock-margins="false" />
  <defs
     id="defs31304">
    <clipPath
       clipPathUnits="userSpaceOnUse"
       id="clipEmfPath1">
      <path
         d="M 0,0 H 141.43265 V 76.476028 H 0 Z"
         id="path6478" />
    </clipPath>
  </defs>
  <g
     inkscape:label="Слой 1"
     inkscape:groupmode="layer"
     id="layer1"
     style="display:inline"
     transform="translate(-101.14621,-65.169521)">
    <path
       id="path31533"
       style="fill:#000000;stroke:none;stroke-width:0.260459px;stroke-linecap:butt;stroke-linejoin:miter;stroke-opacity:1"
       d="m 114.12467,65.169521 c -2.26086,23.222138 -7.58207,41.582329 -10.04326,64.600679 -1.00616,9.41014 -3.63106,19.11185 -2.76135,30.79916 0.29105,3.82922 1.32032,6.83768 3.38421,10.5681 3.35399,4.8225 7.99238,6.86648 13.42246,7.2915 3.13355,-0.0981 4.37138,-0.70054 6.51181,-2.02819 1.72724,-1.07136 3.75847,-3.15322 4.52867,-5.06057 1.47572,-2.90496 1.94135,-5.04129 2.18633,-8.10368 2.18133,-27.26796 -11.27007,-66.091556 -17.22887,-98.066999 z m 9.12273,91.678609 c 3.16896,3.56931 2.84431,9.03179 -0.72512,12.20062 -3.56935,3.16861 -9.03154,2.84382 -12.20024,-0.72546 -3.16882,-3.56916 -2.84435,-9.03137 0.72473,-12.20028 3.56932,-3.16896 9.03179,-2.84431 12.20063,0.72512 z m -4.55114,4.04051 a 2.5561471,2.5561471 0 0 0 -3.60863,-0.2141 2.5561471,2.5561471 0 0 0 -0.21445,3.60824 2.5561471,2.5561471 0 0 0 3.60859,0.21483 2.5561471,2.5561471 0 0 0 0.21449,-3.60897 z"
       inkscape:transform-center-x="0.41333452"
       inkscape:transform-center-y="-40.531894" />
  </g>
</svg>
